<svg xmlns="http://www.w3.org/2000/svg" width="44" height="44"><defs><filter id="a" x="939" y="4878" width="44" height="44" filterUnits="userSpaceOnUse"><feFlood result="flood" flood-color="#c7b299"/><feComposite result="composite" operator="in" in2="SourceGraphic"/><feBlend result="blend" in2="SourceGraphic"/></filter></defs><path d="M967.873 4901.37h-13.747a1.375 1.375 0 100 2.75h13.747a1.375 1.375 0 100-2.75zm2.749-8.24h-19.246a1.37 1.37 0 100 2.74h19.246a1.37 1.37 0 100-2.74zM961 4878c-12.147 0-22 8.62-22 19.25a18.431 18.431 0 008.249 15.01v9.74l9.635-5.85a25.236 25.236 0 004.112.35c12.149 0 22-8.62 22-19.25S973.148 4878 961 4878zm0 35.75a22.075 22.075 0 01-4.646-.51l-6.473 3.89.087-6.37c-4.962-2.99-8.214-7.92-8.214-13.51 0-9.11 8.617-16.5 19.246-16.5s19.247 7.39 19.247 16.5-8.618 16.5-19.247 16.5z" transform="translate(-939 -4878)" fill-rule="evenodd" filter="url(#a)"/></svg>