<svg xmlns="http://www.w3.org/2000/svg" width="54" height="44"><defs><filter id="a" x="1333" y="4878" width="54" height="44" filterUnits="userSpaceOnUse"><feFlood result="flood" flood-color="#c7b299"/><feComposite result="composite" operator="in" in2="SourceGraphic"/><feBlend result="blend" in2="SourceGraphic"/></filter></defs><path d="M1385.31 4918.61h-50.62a1.7 1.7 0 000 3.39h50.62a1.7 1.7 0 000-3.39zm-23.62-33.84v-3.38h3.37a1.7 1.7 0 000-3.39h-10.12a1.7 1.7 0 000 3.39h3.37s-.01 3.52 0 3.38a27.1 27.1 0 00-25.31 27.07v1.7a1.694 1.694 0 001.69 1.69h50.62a1.694 1.694 0 001.69-1.69v-1.7a27.1 27.1 0 00-25.31-27.07zm-25.31 27.07a23.62 23.62 0 1147.24 0h-47.24z" transform="translate(-1333 -4878)" fill-rule="evenodd" filter="url(#a)"/></svg>