<svg xmlns="http://www.w3.org/2000/svg" width="44" height="44"><defs><filter id="a" x="1139" y="4878" width="44" height="44" filterUnits="userSpaceOnUse"><feFlood result="flood" flood-color="#c7b299"/><feComposite result="composite" operator="in" in2="SourceGraphic"/><feBlend result="blend" in2="SourceGraphic"/></filter></defs><path d="M1169.25 4878c-.42 0-.85.03-1.27.06l-.46.06c-.25.03-.51.07-.76.12-.19.03-.38.07-.56.11-.21.05-.42.11-.63.16s-.39.11-.59.18a5.442 5.442 0 00-.52.19 12.305 12.305 0 00-1.34.58 2.1 2.1 0 00-.26.13c-.23.12-.45.25-.68.39-.12.07-.24.14-.36.22-.22.14-.42.28-.63.43a2.141 2.141 0 01-.19.13 13.74 13.74 0 00-22 10.99c0 12.44 8 23.7 21.41 30.11a1.313 1.313 0 001.18 0c13.41-6.41 21.41-17.67 21.41-30.11a13.768 13.768 0 00-13.75-13.75zm-8.25 41.1c-12.07-5.99-19.25-16.17-19.25-27.35a10.974 10.974 0 0117.19-9.07 13.728 13.728 0 00-3.44 9.07 1.375 1.375 0 002.75 0 11.007 11.007 0 013.72-8.23c.21-.19.43-.36.66-.53l.15-.12c.22-.16.44-.31.67-.45.06-.04.13-.08.19-.12.22-.13.45-.25.68-.37l.24-.12c.22-.1.45-.2.67-.29.1-.04.2-.07.31-.11.21-.08.43-.15.64-.21.14-.04.26-.08.4-.11.2-.05.39-.1.59-.14.18-.03.37-.05.55-.08.15-.02.31-.05.47-.07.35-.03.7-.05 1.06-.05a11.007 11.007 0 0111 11c0 11.18-7.18 21.36-19.25 27.35zm8.25-35.6a1.375 1.375 0 100 2.75 5.51 5.51 0 015.5 5.5 1.375 1.375 0 002.75 0 8.258 8.258 0 00-8.25-8.25z" transform="translate(-1139 -4878)" fill-rule="evenodd" filter="url(#a)"/></svg>