<svg xmlns="http://www.w3.org/2000/svg" width="69.969" height="69.97"><defs><filter id="a" x="926.031" y="3634.03" width="69.969" height="69.97" filterUnits="userSpaceOnUse"><feFlood result="flood" flood-color="#fff"/><feComposite result="composite" operator="in" in2="SourceGraphic"/><feBlend result="blend" in2="SourceGraphic"/></filter></defs><path d="M955.934 3685.82a2.047 2.047 0 01-2.06-2.06v-29.52a2.062 2.062 0 013.379-1.59l17.714 14.77a2.053 2.053 0 010 3.16l-17.714 14.76a2.031 2.031 0 01-1.319.48zm2.06-27.19v20.73l12.437-10.36zm2.943 45.37a34.793 34.793 0 01-17.106-4.47 2.06 2.06 0 112.021-3.59 30.921 30.921 0 10-6.7-5.09 2.059 2.059 0 11-2.913 2.91 35.057 35.057 0 1124.698 10.24z" transform="translate(-926.031 -3634.03)" fill-rule="evenodd" filter="url(#a)"/></svg>