<svg xmlns="http://www.w3.org/2000/svg" width="18" height="24"><defs><filter id="filter" x="1476" y="55" width="18" height="24" filterUnits="userSpaceOnUse"><feFlood result="flood" flood-color="#fff"/><feComposite result="composite" operator="in" in2="SourceGraphic"/><feBlend result="blend" in2="SourceGraphic"/></filter><filter id="filter_hover" x="1476" y="55" width="18" height="24" filterUnits="userSpaceOnUse"><feFlood result="flood" flood-color="#c7b29a"/><feComposite result="composite" operator="in" in2="SourceGraphic"/><feBlend result="blend" in2="SourceGraphic"/></filter><style/></defs><path id="icon-cart" d="M1491 58h-1.5c0-1.657-2.02-3-4.5-3s-4.5 1.344-4.5 3h-1.5a3 3 0 00-3 3v15a3 3 0 003 3h12a3 3 0 002.99-3V61a3 3 0 00-2.99-3zm-6-1.5c1.66 0 3 .464 3 1.5h-6c0-1.038 1.34-1.5 3-1.5zm7.49 19.5a1.5 1.5 0 01-1.49 1.5h-12a1.5 1.5 0 01-1.5-1.5v-1.5h14.99V76zm0-3h-14.99V61a1.5 1.5 0 011.5-1.5h1.5V64h1.5v-4.5h6V64h1.5v-4.5h1.5a1.5 1.5 0 011.49 1.5v12z" transform="translate(-1476 -55)" filter="url(#filter)"/></svg>