<svg xmlns="http://www.w3.org/2000/svg" width="21.969" height="21.97"><defs><filter id="a" x="935" y="5760.03" width="21.969" height="21.97" filterUnits="userSpaceOnUse"><feFlood result="flood" flood-color="#cab69e"/><feComposite result="composite" operator="in" in2="SourceGraphic"/><feBlend result="blend" in2="SourceGraphic"/></filter></defs><path d="M942.583 5770.43l4.772-4.77a.735.735 0 011.04 1.04l-4.254 4.26 4.254 4.25a.735.735 0 01-1.04 1.04l-4.772-4.77a.731.731 0 01-.216-.52.759.759 0 01.216-.53zm3.4-10.4A10.98 10.98 0 11935 5771.01a10.979 10.979 0 0110.987-10.98zm0 20.49a9.51 9.51 0 10-9.512-9.51 9.526 9.526 0 009.516 9.51z" transform="translate(-935 -5760.03)" fill-rule="evenodd" filter="url(#a)"/></svg>