<svg xmlns="http://www.w3.org/2000/svg" width="24.625" height="24.62"><defs><filter id="a" x="920.688" y="2641.72" width="24.625" height="24.62" filterUnits="userSpaceOnUse"><feFlood result="flood" flood-color="#c7b299"/><feComposite result="composite" operator="in" in2="SourceGraphic"/><feBlend result="blend" in2="SourceGraphic"/></filter></defs><path d="M943.5 2643.49a6.208 6.208 0 00-8.743 0l-4.721 4.73a7.1 7.1 0 014.908.37l2.454-2.45a2.447 2.447 0 013.46 3.46l-3.085 3.09-2.028 2.02a2.438 2.438 0 01-3.46 0l-2.641 2.65a6.064 6.064 0 002.079 1.36 6.237 6.237 0 006.153-.9 4.686 4.686 0 00.511-.46l3.187-3.19 1.926-1.93a6.18 6.18 0 000-8.75zm-12.561 16.03l-2.352 2.36a2.447 2.447 0 01-3.46-3.46l5.113-5.12a2.457 2.457 0 013.46 0l2.642-2.64a5.97 5.97 0 00-2.079-1.37 6.206 6.206 0 00-6.426 1.14 3.111 3.111 0 00-.239.23l-5.113 5.11a6.185 6.185 0 008.744 8.75l4.618-4.67c-2.347.54-2.898.48-4.909-.33z" transform="translate(-920.688 -2641.72)" fill-rule="evenodd" filter="url(#a)"/></svg>