<svg xmlns="http://www.w3.org/2000/svg" width="63.031" height="55.125"><defs><filter id="a" x="376.344" y="40" width="63.031" height="55.125" filterUnits="userSpaceOnUse"><feFlood result="flood" flood-color="#fff"/><feComposite result="composite" operator="in" in2="SourceGraphic"/><feBlend result="blend" in2="SourceGraphic"/></filter></defs><path d="M413.108 50.713H402.6l5.254 9.191zm-11.822.767l-5.254 9.191h10.508zm18.39 9.191l-5.254-9.191-5.254 9.191h10.508zM409.168 62.2l5.254 9.188 5.254-9.188h-10.508zm-13.136 0l5.254 9.188 5.254-9.188h-10.508zm-6.567 9.952h10.506l-5.253-9.187zm36.778 0l-5.253-9.187-5.252 9.187h10.5zm-18.389-32.16l-5.254 9.19h10.508zm13.136 42.882l5.253-9.188h-10.5zm-26.272 0l5.253-9.188h-10.506zm-11.821.767H393.4l-5.253-9.19zm49.914 0l-5.254-9.19-5.254 9.19h10.508zM422.3 85.172l5.254 9.187 5.254-9.187H422.3zm-13.135 0l5.254 9.187 5.254-9.187h-10.505zm-21.017 9.187l5.253-9.187H382.9zm-11.82.769h10.5l-5.254-9.188zm26.269 0h10.508l-5.254-9.188zm13.138 0h10.5l-5.253-9.188zm18.387-9.188l-5.252 9.188h10.5z" transform="translate(-376.344 -40)" fill-rule="evenodd" filter="url(#a)"/></svg>