<svg xmlns="http://www.w3.org/2000/svg" width="25.157" height="24.47"><defs><filter id="a" x="974.781" y="2641.19" width="25.157" height="24.47" filterUnits="userSpaceOnUse"><feFlood result="flood" flood-color="#fff"/><feComposite result="composite" operator="in" in2="SourceGraphic"/><feBlend result="blend" in2="SourceGraphic"/></filter></defs><path d="M985.3 2645.08a1.3 1.3 0 100 2.59 4.156 4.156 0 013.748 2.31 1.327 1.327 0 001.758.6 1.284 1.284 0 00.607-1.73 6.756 6.756 0 00-6.113-3.77zm14.152 17.8l-4.383-4.32a10.838 10.838 0 002.068-6.36 11.158 11.158 0 10-4.346 8.7l4.335 4.27a1.649 1.649 0 002.326 0 1.6 1.6 0 00.004-2.29zm-22.047-10.68a8.552 8.552 0 0117.1 0 8.4 8.4 0 01-3.029 6.42 8.561 8.561 0 01-14.067-6.42z" transform="translate(-974.781 -2641.19)" fill-rule="evenodd" filter="url(#a)"/></svg>