<svg xmlns="http://www.w3.org/2000/svg" width="50.88" height="35.63"><defs><filter id="filter" x="1388.75" y="1116.34" width="50.88" height="35.63" filterUnits="userSpaceOnUse"><feFlood result="flood" flood-color="#555"/><feComposite result="composite" operator="in" in2="SourceGraphic"/><feBlend result="blend" in2="SourceGraphic"/></filter><filter id="filter_hover" x="1388.75" y="1116.34" width="50.88" height="35.63" filterUnits="userSpaceOnUse"><feFlood result="flood" flood-color="#c7b29a"/><feComposite result="composite" operator="in" in2="SourceGraphic"/><feBlend result="blend" in2="SourceGraphic"/></filter><style/></defs><path id="icon" d="M1397 1129.25a6.787 6.787 0 015.74-3.61h26.21v-1.66a2.482 2.482 0 00-2.46-2.48h-10.82v-1.44a3.707 3.707 0 00-3.68-3.73h-6.29a3.722 3.722 0 00-3.69 3.73v1.44h-10.81a2.475 2.475 0 00-2.46 2.48v22.17zm7.47-9.19a1.266 1.266 0 01.36-.88 1.185 1.185 0 01.87-.36h6.29a1.231 1.231 0 011.23 1.24v1.44h-8.75v-1.44zm25.45 29.7a4.319 4.319 0 01-3.54 2.22h-35.3a1.417 1.417 0 01-1.37-2.22l9.49-19.42a4.333 4.333 0 013.54-2.22h35.3a1.417 1.417 0 011.37 2.22z" transform="translate(-1388.75 -1116.34)" filter="url(#filter)"/></svg>