<svg xmlns="http://www.w3.org/2000/svg" width="47.594" height="47.59"><defs><filter id="filter_pen" x="487.531" y="1104.88" width="47.594" height="47.59" filterUnits="userSpaceOnUse"><feFlood result="flood" flood-color="#555"/><feComposite result="composite" operator="in" in2="SourceGraphic"/><feBlend result="blend" in2="SourceGraphic"/></filter><filter id="filter_pen_hover" x="487.531" y="1104.88" width="47.594" height="47.59" filterUnits="userSpaceOnUse"><feFlood result="flood" flood-color="#c7b29a"/><feComposite result="composite" operator="in" in2="SourceGraphic"/><feBlend result="blend" in2="SourceGraphic"/></filter><style/></defs><path id="icon" d="M534.668 1121.47a1.591 1.591 0 00-2.248 0l-13.847 13.84-19.467 8.58-3-3 8.576-19.47 13.844-13.84a1.59 1.59 0 00-2.248-2.25l-14.268 14.26-14.477 32.87 32.868-14.47 14.266-14.27a1.592 1.592 0 00.001-2.25zm-20.173 11a1.606 1.606 0 002.25 0l13.332-13.34a1.591 1.591 0 00-2.25-2.25l-13.327 13.34a1.593 1.593 0 000 2.25zm-3.48-3.48a1.606 1.606 0 002.25 0l13.333-13.34a1.591 1.591 0 00-2.25-2.25l-13.333 13.33a1.6 1.6 0 000 2.26zm-3.481-3.49a1.581 1.581 0 002.25 0l13.333-13.33a1.591 1.591 0 00-2.25-2.25l-13.333 13.33a1.593 1.593 0 000 2.25z" transform="translate(-487.531 -1104.88)" filter="url(#filter_pen)"/></svg>