<svg xmlns="http://www.w3.org/2000/svg" width="44" height="44"><defs><filter id="a" x="540" y="4878" width="44" height="44" filterUnits="userSpaceOnUse"><feFlood result="flood" flood-color="#c7b299"/><feComposite result="composite" operator="in" in2="SourceGraphic"/><feBlend result="blend" in2="SourceGraphic"/></filter></defs><path d="M559.937 4908.25c5.688 0 10.313-5.63 10.313-12.55s-4.625-12.54-10.313-12.54a9.441 9.441 0 00-7.394 3.78 14.037 14.037 0 00-2.918 8.76c0 6.92 4.625 12.55 10.312 12.55zm0-22.34c4.17 0 7.563 4.39 7.563 9.79s-3.393 9.8-7.563 9.8-7.562-4.39-7.565-9.8 3.393-9.79 7.565-9.79zm8.661 20.96a1.375 1.375 0 100 2.75 8.541 8.541 0 018.527 8.53 1.1 1.1 0 01-1.1 1.1h-32.177a1.1 1.1 0 01-1.1-1.1 8.539 8.539 0 018.524-8.53 1.375 1.375 0 100-2.75A11.289 11.289 0 00540 4918.15a3.856 3.856 0 003.848 3.85h32.176a3.857 3.857 0 003.851-3.85 11.292 11.292 0 00-11.275-11.28zm-7.655-25.24a6.084 6.084 0 013.119-.88c4.17 0 7.563 4.4 7.563 9.8a12.42 12.42 0 01-.32 2.83 1.379 1.379 0 001.024 1.65 1.688 1.688 0 00.315.03 1.369 1.369 0 001.338-1.06 15.2 15.2 0 00.393-3.45c0-6.92-4.625-12.55-10.313-12.55a8.936 8.936 0 00-4.518 1.26 1.376 1.376 0 001.399 2.37zM573 4901.37a1.375 1.375 0 100 2.75 8.386 8.386 0 018.25 8.62 1.068 1.068 0 01-.094.45 1.38 1.38 0 00.7 1.82 1.4 1.4 0 001.816-.7 3.878 3.878 0 00.33-1.57A11.142 11.142 0 00573 4901.37z" transform="translate(-540 -4878)" fill-rule="evenodd" filter="url(#a)"/></svg>