<svg xmlns="http://www.w3.org/2000/svg" width="21.969" height="21.97"><defs><filter id="a" x="965.031" y="5760.03" width="21.969" height="21.97" filterUnits="userSpaceOnUse"><feFlood result="flood" flood-color="#cab69e"/><feComposite result="composite" operator="in" in2="SourceGraphic"/><feBlend result="blend" in2="SourceGraphic"/></filter></defs><path d="M979.417 5770.43l-4.772-4.77a.735.735 0 00-1.04 1.04l4.254 4.26-4.254 4.25a.735.735 0 001.04 1.04l4.772-4.77a.731.731 0 00.216-.52.759.759 0 00-.216-.53zm-3.405-10.4A10.98 10.98 0 10987 5771.01a10.978 10.978 0 00-10.988-10.98zm0 20.49a9.51 9.51 0 119.513-9.51 9.526 9.526 0 01-9.513 9.51z" transform="translate(-965.031 -5760.03)" fill-rule="evenodd" filter="url(#a)"/></svg>