<svg xmlns="http://www.w3.org/2000/svg" viewBox="0 0 490.787 490.787" width="512" height="512"><path d="M128.116 490.787a10.663 10.663 0 007.552-3.115l234.667-234.666c4.164-4.165 4.164-10.917 0-15.083L135.668 3.256c-4.093-4.237-10.845-4.354-15.083-.262-4.237 4.093-4.354 10.845-.262 15.083.086.089.173.176.262.262L347.7 245.454 120.564 472.569c-4.171 4.16-4.179 10.914-.019 15.085a10.67 10.67 0 007.571 3.133z" data-original="#F44336" fill="#f44336"/><path d="M128.116 490.787a10.663 10.663 0 007.552-3.115l234.667-234.666c4.164-4.165 4.164-10.917 0-15.083L135.668 3.256c-4.093-4.237-10.845-4.354-15.083-.262-4.237 4.093-4.354 10.845-.262 15.083.086.089.173.176.262.262L347.7 245.454 120.564 472.569c-4.171 4.16-4.179 10.914-.019 15.085a10.67 10.67 0 007.571 3.133z" data-original="#000000" class="active-path" data-old_color="#000000" fill="#a5988a"/></svg>